<?xml version="1.0" encoding="iso-8859-1"?>
<!-- Uploaded to: SVG Repo, www.svgrepo.com, Generator: SVG Repo Mixer Tools -->
<svg height="800px" width="800px" version="1.1" id="Layer_1" xmlns="http://www.w3.org/2000/svg" xmlns:xlink="http://www.w3.org/1999/xlink" 
	 viewBox="0 0 511.999 511.999" xml:space="preserve">
<g>
	<path style="fill:#EFBD54;" d="M295.927,238.962c12.177-10.232,17.389-20.988,12.324-36.577
		c-4.044-12.44-11.013-25.857,2.413-46.095l-17.751-17.75c-8.877,8.871-27.719,8.972-36.915,3.664
		c-9.194,5.308-28.035,5.208-36.911-3.664l-17.753,17.75c13.425,20.237,6.457,33.654,2.413,46.095
		c-5.065,15.588,0.149,26.345,12.324,36.577c15.527,13.049,32.372,15.154,39.927,22.712
		C263.756,253.92,280.4,252.01,295.927,238.962z"/>
	<path style="fill:#6C686F;" d="M216.07,238.962c-12.175-10.232-17.389-20.988-12.324-36.577
		c4.044-12.44,11.013-25.857-2.413-46.095l17.753-17.75c8.874,8.871,27.716,8.972,36.911,3.664
		c9.196,5.308,28.037,5.208,36.915-3.664l17.751,17.75c-13.425,20.237-6.457,33.654-2.413,46.095
		c5.065,15.588-0.147,26.345-12.324,36.577c-15.527,13.049-32.171,14.958-39.929,22.712
		C248.442,254.116,231.598,252.01,216.07,238.962L216.07,238.962z M464.935,302.079c0,0,81.807-103.969,0.243-103.969
		S349.132,84.799,256,84.799c-93.13,0-127.616,113.31-209.18,113.31c-81.563,0,0.244,103.969,0.244,103.969h107.534h202.3H464.935z"
		/>
	<polygon style="fill:#E8863B;" points="356.898,302.079 154.598,302.079 47.064,302.079 57.759,366.662 454.239,366.662 
		464.935,302.079 	"/>
	<path style="fill:#6C686F;" d="M454.239,366.662H57.759C135.744,444.651,370.836,450.067,454.239,366.662z"/>
</g>
<g>
	<path style="fill:#000003;" d="M508.429,208.046c-6.64-13.674-21.19-20.606-43.25-20.606c-35.23,0-61.811-24.761-89.954-50.976
		c-31.365-29.217-66.916-62.334-119.224-62.334s-87.859,33.115-119.224,62.333c-28.143,26.216-54.725,50.977-89.956,50.977
		c-22.06,0-36.611,6.932-43.25,20.606c-7.357,15.15-3.332,37.08,11.96,65.183c8.337,15.318,17.669,28.202,21.441,33.218
		l10.262,61.959c0.012,0.07,0.031,0.139,0.046,0.209c0.021,0.113,0.048,0.226,0.073,0.338c0.083,0.377,0.185,0.746,0.304,1.104
		c0.029,0.087,0.054,0.175,0.085,0.26c0.161,0.444,0.35,0.871,0.564,1.281c0.033,0.065,0.07,0.126,0.107,0.19
		c0.202,0.369,0.427,0.723,0.669,1.063c0.05,0.069,0.096,0.141,0.148,0.209c0.282,0.377,0.588,0.731,0.914,1.064
		c0.025,0.026,0.044,0.055,0.069,0.081c39.269,39.269,118.864,63.664,207.726,63.664c87.776,0,163.977-23.8,203.842-63.662
		c0.35-0.349,0.668-0.729,0.967-1.125c0.039-0.05,0.079-0.099,0.116-0.15c0.275-0.378,0.523-0.776,0.748-1.19
		c0.035-0.065,0.068-0.129,0.102-0.195c0.217-0.419,0.413-0.854,0.575-1.307c0.003-0.011,0.005-0.021,0.009-0.031
		c0.149-0.421,0.265-0.86,0.361-1.306c0.021-0.094,0.042-0.187,0.061-0.281c0.013-0.075,0.033-0.147,0.046-0.222l10.262-61.959
		c3.772-5.016,13.104-17.898,21.441-33.218C511.761,245.126,515.785,223.195,508.429,208.046z M59.646,312.749h94.929
		c0.011,0,0.021,0.002,0.032,0.002c0.012,0,0.021-0.002,0.032-0.002h202.216c0.011,0,0.022,0.002,0.032,0.002
		c0.01,0,0.021-0.002,0.032-0.002h95.433l-7.162,43.242H66.808L59.646,312.749z M257.94,416.531
		c-67.984,0-129.596-14.617-169.234-39.199h334.953C384.565,402.195,325.152,416.531,257.94,416.531z M459.658,291.408H375.38
		l12.098-20.953c2.947-5.103,1.198-11.628-3.904-14.576c-5.104-2.946-11.63-1.197-14.577,3.905l-18.258,31.624H160.757
		l-18.259-31.624c-2.947-5.103-9.472-6.851-14.576-3.905c-5.104,2.947-6.852,9.473-3.905,14.576l12.098,20.953H52.34
		c-17.424-23.398-36.706-59.367-29.573-74.044c3.45-7.095,14.983-8.584,24.052-8.584c43.632,0,74.576-28.826,104.503-56.703
		c31.251-29.111,60.769-56.608,104.679-56.608s73.428,27.497,104.678,56.609c29.927,27.876,60.871,56.702,104.501,56.702
		c9.069,0,20.603,1.49,24.052,8.584C496.364,232.041,477.082,268.01,459.658,291.408z"/>
	<path style="fill:#000003;" d="M318.208,148.744l-17.754-17.751c-4.166-4.166-10.92-4.166-15.087,0
		c-2.503,2.502-7.845,4.118-13.607,4.118c-4.947,0-8.711-1.159-10.431-2.151c-3.3-1.905-7.363-1.903-10.663,0
		c-1.719,0.992-5.483,2.151-10.429,2.151c-5.762,0-11.102-1.617-13.606-4.118c-4.166-4.165-10.92-4.167-15.087,0l-17.754,17.751
		c-3.591,3.591-4.154,9.214-1.347,13.446c9.135,13.765,6.217,22.192,2.525,32.86c-0.472,1.363-0.937,2.708-1.37,4.041
		c-7.992,24.586,5.079,39.191,15.606,48.039c9.707,8.157,19.631,12.462,27.606,15.92c4.97,2.156,9.666,4.192,11.64,6.167
		c2.002,2.002,4.715,3.126,7.545,3.126c0,0,0,0,0.001,0c2.83,0,5.544-1.125,7.545-3.125c2.085-2.085,6.824-4.133,11.839-6.299
		c7.906-3.416,17.747-7.668,27.41-15.789c10.526-8.846,23.597-23.45,15.607-48.039c-0.433-1.334-0.898-2.679-1.369-4.041
		c-3.693-10.668-6.609-19.096,2.523-32.863C322.361,157.958,321.798,152.336,318.208,148.744z M289.063,230.794
		c-7.27,6.11-15.172,9.524-22.145,12.535c-3.835,1.657-7.551,3.264-10.949,5.207c-3.309-1.873-6.931-3.445-10.667-5.064
		c-7.051-3.058-15.043-6.524-22.366-12.678c-9.976-8.384-12.341-14.953-9.041-25.106c0.392-1.208,0.814-2.423,1.24-3.657
		c3.752-10.837,8.726-25.213-0.479-43.97l5.798-5.797c5.694,2.715,12.507,4.189,19.781,4.189c0.001,0,0.003,0,0.003,0
		c5.677,0,11.095-0.894,15.761-2.564c4.667,1.67,10.086,2.564,15.762,2.564c7.275,0,14.089-1.475,19.784-4.189l5.798,5.797
		c-9.204,18.758-4.231,33.134-0.479,43.972c0.427,1.231,0.848,2.448,1.24,3.656C301.403,215.841,299.036,222.411,289.063,230.794z"
		/>
	<path style="fill:#000003;" d="M398.966,229.082c-5.123-2.913-11.636-1.119-14.55,4.003l-0.125,0.221
		c-2.912,5.124-1.119,11.637,4.004,14.549c1.666,0.948,3.476,1.397,5.264,1.397c3.712,0,7.32-1.941,9.286-5.4l0.126-0.221
		C405.881,238.508,404.088,231.994,398.966,229.082z"/>
</g>
</svg>