<?xml version="1.0" encoding="UTF-8"?>
<svg version="1.1" xmlns="http://www.w3.org/2000/svg" width="180" height="180">
<path d="M0 0 C1.48353697 -0.00389233 2.96707285 -0.0082281 4.4506073 -0.01298523 C7.54450108 -0.02041157 10.63828063 -0.02018004 13.73217773 -0.01489258 C17.6979403 -0.00906839 21.66324029 -0.02611654 25.62892628 -0.04923725 C28.68552889 -0.06395005 31.74201899 -0.06485027 34.79865074 -0.06172752 C36.26150118 -0.06224085 37.7243579 -0.06748083 39.18717384 -0.07753944 C41.22606472 -0.08985269 43.26504988 -0.08118842 45.30395508 -0.0715332 C47.04313957 -0.07247734 47.04313957 -0.07247734 48.81745911 -0.07344055 C51.66796875 0.30078125 51.66796875 0.30078125 53.5657196 1.6365509 C54.66796875 3.30078125 54.66796875 3.30078125 54.66796875 6.30078125 C56.97796875 6.30078125 59.28796875 6.30078125 61.66796875 6.30078125 C61.95671875 5.49640625 62.24546875 4.69203125 62.54296875 3.86328125 C63.66796875 1.30078125 63.66796875 1.30078125 65.66796875 0.30078125 C77.33274022 -0.96910056 89.15962383 1.56287583 98.66796875 8.61328125 C109.64388819 18.18626362 115.659508 28.64918094 116.921875 43.234375 C117.22130654 50.50766375 117.22130654 50.50766375 114.79296875 53.98828125 C112.66796875 55.30078125 112.66796875 55.30078125 110.66796875 55.30078125 C110.66796875 57.61078125 110.66796875 59.92078125 110.66796875 62.30078125 C111.28671875 62.40390625 111.90546875 62.50703125 112.54296875 62.61328125 C114.66796875 63.30078125 114.66796875 63.30078125 116.66796875 66.30078125 C116.92866516 69.01048279 116.92866516 69.01048279 116.94262695 72.32592773 C116.95215897 73.56829697 116.96169098 74.8106662 116.97151184 76.09068298 C116.97125018 77.45108061 116.97031201 78.81147825 116.96875 80.171875 C116.97264041 81.57373684 116.97697579 82.97559751 116.98173523 84.37745667 C116.98920317 87.32223313 116.9889051 90.26688979 116.98364258 93.21166992 C116.97789147 96.95362479 116.99466901 100.69507762 117.01798725 104.43694973 C117.03286172 107.337802 117.03357713 110.23853779 117.03047752 113.13942146 C117.03098536 114.5166834 117.03612022 115.89395281 117.04628944 117.27117729 C117.14253155 132.14762174 114.69947017 145.1439447 104.6328125 156.62109375 C94.22766732 166.55413615 81.68401118 170.6196651 67.57495117 170.57543945 C66.71509109 170.58055038 65.85523102 170.58566132 64.96931458 170.59092712 C62.15394948 170.60471731 59.33883216 170.60387416 56.5234375 170.6015625 C54.54722505 170.60545563 52.57101342 170.60979157 50.59480286 170.61454773 C46.4618559 170.62198754 42.3289944 170.62173523 38.19604492 170.61645508 C32.92751454 170.61066783 27.65933656 170.62758452 22.39086437 170.65079975 C18.31136567 170.66560893 14.2319504 170.66639898 10.15242958 170.66329002 C8.21137101 170.66379977 6.27030734 170.66897166 4.32927513 170.67910194 C-12.0329295 170.7540175 -27.04284336 169.81659881 -39.72265625 158.08984375 C-52.54882767 144.17107254 -53.94791795 129.2342458 -53.86328125 111.0234375 C-53.86598174 108.96422645 -53.86986877 106.90501666 -53.87487793 104.84580994 C-53.88074808 100.54657761 -53.87229132 96.24767954 -53.85351562 91.94848633 C-53.83074228 86.47037883 -53.84385514 80.99305615 -53.86780548 75.51497746 C-53.88234315 71.26727007 -53.87762088 67.01974502 -53.86729431 62.77203178 C-53.86464824 60.75365541 -53.86782108 58.73526185 -53.87721252 56.71690559 C-53.93903353 39.69894972 -52.48220992 26.01695501 -40.23046875 13.08203125 C-28.32645764 1.80897479 -15.76722005 -0.01725611 0 0 Z " fill="#F91127" transform="translate(58.33203125,4.69921875)"/>
<path d="M0 0 C1.48353697 -0.00389233 2.96707285 -0.0082281 4.4506073 -0.01298523 C7.54450108 -0.02041157 10.63828063 -0.02018004 13.73217773 -0.01489258 C17.6979403 -0.00906839 21.66324029 -0.02611654 25.62892628 -0.04923725 C28.68552889 -0.06395005 31.74201899 -0.06485027 34.79865074 -0.06172752 C36.26150118 -0.06224085 37.7243579 -0.06748083 39.18717384 -0.07753944 C41.22606472 -0.08985269 43.26504988 -0.08118842 45.30395508 -0.0715332 C47.04313957 -0.07247734 47.04313957 -0.07247734 48.81745911 -0.07344055 C51.66796875 0.30078125 51.66796875 0.30078125 53.5735321 1.6365509 C54.66796875 3.30078125 54.66796875 3.30078125 54.54296875 6.30078125 C53.62517371 9.44750711 53.260637 10.41514755 50.66796875 12.30078125 C47.8621521 12.67259216 47.8621521 12.67259216 44.41162109 12.66967773 C43.11952728 12.67656113 41.82743347 12.68344452 40.4961853 12.6905365 C39.46002642 12.68576955 39.46002642 12.68576955 38.40293503 12.6809063 C36.23240192 12.67178463 34.06273085 12.68203389 31.89224243 12.69752502 C25.72163252 12.7375765 19.55108938 12.73883936 13.38037109 12.73657227 C9.60307205 12.73652086 5.82623338 12.75584441 2.04906082 12.78590584 C-0.07646277 12.79664941 -2.20107529 12.78464555 -4.3265686 12.77207947 C-11.90585166 12.8300977 -17.75846314 13.39580299 -24.33203125 17.30078125 C-25.40453125 17.91953125 -26.47703125 18.53828125 -27.58203125 19.17578125 C-34.07440503 24.19261553 -37.76624142 30.60341177 -40.33203125 38.30078125 C-40.45957913 41.22364885 -40.53106234 44.12402812 -40.55664062 47.0480957 C-40.5680307 47.94288132 -40.57942078 48.83766693 -40.59115601 49.75956726 C-40.70206729 59.14567277 -40.74929232 68.53256651 -40.79199219 77.91918945 C-40.8141984 82.36262009 -40.85586453 86.80520175 -40.91503906 91.24829102 C-40.98652582 96.62704402 -41.02288409 102.00500312 -41.03511047 107.38420677 C-41.04544823 109.42418259 -41.06772073 111.46413751 -41.10270691 113.50383949 C-41.3194236 126.83589919 -40.68749003 137.90755278 -31.49206543 148.40034485 C-24.46398318 155.11124508 -16.03536042 157.44272111 -6.5847168 157.52539062 C-5.68993118 157.5367807 -4.79514557 157.54817078 -3.87324524 157.55990601 C5.51286027 157.67081729 14.89975401 157.71804232 24.28637695 157.76074219 C28.72980759 157.7829484 33.17238925 157.82461453 37.61547852 157.88378906 C42.99423152 157.95527582 48.37219062 157.99163409 53.75139427 158.00386047 C55.79137009 158.01419823 57.83132501 158.03647073 59.87102699 158.07145691 C73.3283042 158.29020905 83.83346182 157.47114489 94.66304016 148.68151855 C103.24467091 139.75327423 104.39413725 128.70407419 104.3046875 116.89453125 C104.31274533 115.43768802 104.32327359 113.98085659 104.33613586 112.52404785 C104.36444711 108.72429056 104.3652975 104.92508181 104.35827637 101.12524414 C104.3508986 95.01709226 104.38228152 88.9091109 104.42072487 82.80110168 C104.42956352 80.67436203 104.42428413 78.54800337 104.41716003 76.42126465 C104.42089127 75.13562622 104.4246225 73.84998779 104.4284668 72.52539062 C104.42583076 70.82642639 104.42583076 70.82642639 104.42314148 69.09313965 C104.66796875 66.30078125 104.66796875 66.30078125 106.66796875 63.30078125 C110.29296875 62.61328125 110.29296875 62.61328125 113.66796875 62.30078125 C116.73080019 65.65541045 117.04634711 67.95386688 117.05615234 72.43945312 C117.06560883 73.68174683 117.07506531 74.92404053 117.08480835 76.20397949 C117.07943373 77.55916664 117.07327957 78.91435088 117.06640625 80.26953125 C117.06842964 81.6699641 117.07134329 83.07039593 117.07510376 84.4708252 C117.07952633 87.40968838 117.07310635 90.34827803 117.05908203 93.28710938 C117.04211615 97.02121946 117.05175042 100.75467656 117.06979942 104.4887619 C117.08074795 107.38534269 117.07713874 110.28177418 117.06941605 113.17835999 C117.0674378 114.55282165 117.0697881 115.92729763 117.07685471 117.30174255 C117.13640788 132.15901706 114.68602198 145.15927718 104.6328125 156.62109375 C94.22766732 166.55413615 81.68401118 170.6196651 67.57495117 170.57543945 C66.71509109 170.58055038 65.85523102 170.58566132 64.96931458 170.59092712 C62.15394948 170.60471731 59.33883216 170.60387416 56.5234375 170.6015625 C54.54722505 170.60545563 52.57101342 170.60979157 50.59480286 170.61454773 C46.4618559 170.62198754 42.3289944 170.62173523 38.19604492 170.61645508 C32.92751454 170.61066783 27.65933656 170.62758452 22.39086437 170.65079975 C18.31136567 170.66560893 14.2319504 170.66639898 10.15242958 170.66329002 C8.21137101 170.66379977 6.27030734 170.66897166 4.32927513 170.67910194 C-12.0329295 170.7540175 -27.04284336 169.81659881 -39.72265625 158.08984375 C-52.54882767 144.17107254 -53.94791795 129.2342458 -53.86328125 111.0234375 C-53.86598174 108.96422645 -53.86986877 106.90501666 -53.87487793 104.84580994 C-53.88074808 100.54657761 -53.87229132 96.24767954 -53.85351562 91.94848633 C-53.83074228 86.47037883 -53.84385514 80.99305615 -53.86780548 75.51497746 C-53.88234315 71.26727007 -53.87762088 67.01974502 -53.86729431 62.77203178 C-53.86464824 60.75365541 -53.86782108 58.73526185 -53.87721252 56.71690559 C-53.93903353 39.69894972 -52.48220992 26.01695501 -40.23046875 13.08203125 C-28.32645764 1.80897479 -15.76722005 -0.01725611 0 0 Z " fill="#010000" transform="translate(58.33203125,4.69921875)"/>
<path d="M0 0 C13.73222694 1.64613446 24.32755523 7.66325857 33.1484375 18.28515625 C40.06610126 27.82497684 43.38882365 39.66905857 41.71484375 51.4453125 C39.71484375 54.1328125 39.71484375 54.1328125 37.71484375 55.4453125 C31.96484375 53.8203125 31.96484375 53.8203125 29.71484375 50.4453125 C29.51841622 48.57644487 29.40293247 46.69841522 29.33984375 44.8203125 C28.69735649 35.78193234 25.14138859 27.92643522 18.71484375 21.4453125 C10.52386855 15.51573013 3.71565846 13.24282423 -6.32421875 12.88671875 C-9.28515625 12.4453125 -9.28515625 12.4453125 -11.125 11.0625 C-12.75365565 8.79225272 -13.2169004 7.24380217 -13.28515625 4.4453125 C-9.44873724 -0.54753904 -5.93357487 -0.20023312 0 0 Z " fill="#020000" transform="translate(133.28515625,4.5546875)"/>
<path d="M0 0 C6.8147983 1.86387646 12.36058923 5.88923259 16 12 C18.18529442 17.09151072 18.3345802 21.74252172 18.3125 27.1875 C18.32861328 27.99380859 18.34472656 28.80011719 18.36132812 29.63085938 C18.36197266 30.40623047 18.36261719 31.18160156 18.36328125 31.98046875 C18.36626221 32.68067139 18.36924316 33.38087402 18.37231445 34.10229492 C17.88376904 36.59243493 17.00138808 37.47882793 15 39 C11.9375 39.3125 11.9375 39.3125 9 39 C5.73429956 35.73429956 6.63981379 30.90911023 6.609375 26.47265625 C6.44479232 21.23344106 5.53213407 18.1187429 2 14 C-2.07309897 10.80103642 -8.02593045 11.57339565 -12.9765625 11.43359375 C-18.79889523 11.20110477 -18.79889523 11.20110477 -21 9 C-21.3125 5.5 -21.3125 5.5 -21 2 C-15.33008455 -1.77994363 -6.66038411 -0.73286752 0 0 Z " fill="#040000" transform="translate(134,28)"/>
</svg>
